<?xml version="1.0" encoding="UTF-8"?>
<svg id="Layer_1" xmlns="http://www.w3.org/2000/svg" version="1.1" viewBox="0 0 1080 1080">
  <!-- Generator: Adobe Illustrator 29.1.0, SVG Export Plug-In . SVG Version: 2.1.0 Build 142)  -->
  <defs>
    <style>
      .st0 {
        fill: #626366;
      }

      .st0, .st1 {
        fill-rule: evenodd;
      }

      .st1, .st2 {
        fill: #fd5631;
      }
    </style>
  </defs>
  <path class="st1" d="M170.7,307.3h251.6s87.2,37.7,87.2,118.7-33.9,131.7-101.9,137.3c46.1,80.6,126.7,228.3,126.7,228.3h-93.7l-128.8-223.7h-40.1v-91.2h135.9c4.3-.6,27.7-8.1,28.3-43.8s-25.7-37.6-28.3-39h-236.9v-86.6h0Z"/>
  <path class="st0" d="M575.4,307.3h251.6s87.2,37.7,87.2,118.7-33.9,131.7-101.9,137.3l-132.5-.5-2.8,231h-80.4l1.3-225.9c0-47.7,29.2-91.2,89.8-91.2h124.6c4.3-.6,27.7-8.1,28.3-43.8s-25.7-37.6-28.3-39h-236.9v-86.6h0Z"/>
  <path class="st2" d="M984.7,504.1c-14.5,68.1-29.8,134.6-56.6,197.9-71,168-192,283.9-359.7,344.6-8.8,3.2-17.2,4.8-25.6,4.8s-17.1-1.7-26.2-5c-191.9-69.9-321.4-210.2-385.1-417.1-39.3-127.6-51.9-264.2-38.6-417.5,1.5-17.8,9.7-28,26.4-33.2,132-40.6,266-82.4,395.5-122.9l10.4-3.2c11.8-3.7,23.4-3.6,35.5.2l19.5,6.1c125.1,39.1,254.5,79.5,381.9,118.5,20.1,6.1,28.5,16.5,30.2,37.1,7.5,93.8,5.8,178.5-5,259-.5,3.7-2.6,26.6-2.7,30.7,0,1.1,1.9-16.7,1.9-15.6M966.9,497c10.7-79.2,14-188.8,6.7-281.2-1-12.8-4.2-16.6-16.9-20.5-127.5-39-256.9-79.4-382-118.5l-19.5-6.1c-4.4-1.4-8.5-2.1-12.6-2.1s-7.7.6-11.7,1.9l-10.4,3.2c-129.6,40.5-263.6,82.3-395.6,122.9-9.4,2.9-12.2,6.5-13.1,16.7-13.1,150.9-.7,285,37.9,410.3,61.8,200.9,187.5,337.1,373.5,404.9,13.9,5.1,25.2,5.1,38.8.2,162.6-58.8,279.9-171.3,348.8-334.2,26.5-62.8,41.7-129.3,56.1-197.6"/>
</svg>