<?xml version="1.0" encoding="UTF-8"?>
<svg id="_Ñëîé_4" data-name="Ñëîé_4" xmlns="http://www.w3.org/2000/svg" version="1.1" viewBox="0 0 64 64">
  <!-- Generator: Adobe Illustrator 29.1.0, SVG Export Plug-In . SVG Version: 2.1.0 Build 142)  -->
  <defs>
    <style>
      .st0 {
        stroke-width: 1.7px;
      }

      .st0, .st1, .st2 {
        stroke-linecap: round;
        stroke-linejoin: round;
      }

      .st0, .st1, .st2, .st3 {
        fill: none;
        stroke: #fff;
      }

      .st1 {
        stroke-width: .5px;
      }

      .st2, .st3 {
        stroke-width: .8px;
      }

      .st3 {
        stroke-miterlimit: 10;
      }
    </style>
  </defs>
  <path class="st0" d="M7.4,35.3V6.9c0-1.3,1-2.3,2.3-2.3h35.3c1.3,0,2.3,1,2.3,2.3v22.4"/>
  <path class="st0" d="M47.3,55.4v1.7c0,1.3-1,2.3-2.3,2.3H9.7c-1.3,0-2.3-1-2.3-2.3v-9.4"/>
  <path class="st0" d="M44.1,45.3l2.6-1.2,4.7-6.2c1.8-2.4,1.3-5.7-1.1-7.5h0c-2.4-1.8-5.7-1.3-7.5,1.1l-6.9,9.2c-1.8,2.4-1.3,5.7,1.1,7.5h0c1.2.9,2.8,1.2,4.2,1,.3-1.6,1.4-3.1,3-3.8Z"/>
  <path class="st0" d="M41.5,52.4h0c-1.3-2.7-.1-5.9,2.6-7.2l10.4-4.9c2.7-1.3,5.9-.1,7.2,2.6h0c1.3,2.7.1,5.9-2.6,7.2l-10.4,4.9c-2.7,1.3-5.9.1-7.2-2.6Z"/>
  <line class="st0" x1="49.3" y1="42.8" x2="53.9" y2="52.6"/>
  <line class="st0" x1="39.3" y1="36" x2="47.9" y2="42.4"/>
  <path class="st0" d="M11.1,36.4c2.8,1.9,3.5,5.8,1.6,8.6-1.9,2.8-5.8,3.5-8.6,1.6-2.8-1.9-3.5-5.8-1.6-8.6,1.9-2.8,5.8-3.5,8.6-1.6Z"/>
  <line class="st0" x1="4.1" y1="46.6" x2="11.1" y2="36.4"/>
  <line class="st0" x1="32.5" y1="20.4" x2="43" y2="20.4"/>
  <line class="st0" x1="27.4" y1="25.7" x2="43" y2="25.7"/>
  <line class="st0" x1="15.7" y1="36" x2="35.2" y2="36"/>
  <line class="st0" x1="17.1" y1="40.6" x2="30.6" y2="40.6"/>
  <line class="st0" x1="17.1" y1="45.7" x2="30.6" y2="45.7"/>
  <line class="st0" x1="13.6" y1="50.9" x2="34.8" y2="50.9"/>
  <g>
    <path class="st2" d="M17.6,13l2.8-2.8c.9-.9,2.4-.9,3.4,0,.5.5.7,1.1.7,1.7s-.2,1.2-.7,1.7l-2.8,2.8"/>
    <path class="st2" d="M14.2,16.4l-2.8,2.8c-.9.9-.9,2.4,0,3.4.9.9,2.4.9,3.4,0l2.8-2.8"/>
    <path class="st3" d="M23.7,19.1l-6.1-6.1h0l-2.8-2.8c-.9-.9-2.4-.9-3.4,0-.5.5-.7,1.1-.7,1.7s.2,1.2.7,1.7l2.8,2.8,3.4,3.4,2.8,2.8c.9.9,2.4.9,3.4,0,.9-.9.9-2.4,0-3.4ZM19.2,19.3l-4.6-4.6,1.3-1.3,4.6,4.6-1.3,1.3Z"/>
    <rect class="st1" x="16.6" y="13.1" width="1.9" height="6.5" transform="translate(-6.4 17.2) rotate(-45)"/>
    <path class="st1" d="M21.6,10.8s0,0,0,0,0,0,0,0,0,0,0,0,0,0,0,0Z"/>
    <path class="st1" d="M22.4,11.6s0,0,0,0,0,0,0,0,0,0,0,0,0,0,0,0Z"/>
    <path class="st1" d="M23.2,12.3s0,0,0,0,0,0,0,0,0,0,0,0,0,0,0,0Z"/>
    <path class="st1" d="M20.8,11.6s0,0,0,0,0,0,0,0,0,0,0,0,0,0,0,0Z"/>
    <path class="st1" d="M21.6,12.4s0,0,0,0,0,0,0,0,0,0,0,0,0,0,0,0Z"/>
    <path class="st1" d="M22.3,13.1s0,0,0,0,0,0,0,0,0,0,0,0,0,0,0,0Z"/>
    <path class="st1" d="M20.2,12.3s0,0,0,0,0,0,0,0,0,0,0,0,0,0,0,0Z"/>
    <path class="st1" d="M20.9,13.1s0,0,0,0,0,0,0,0,0,0,0,0,0,0,0,0Z"/>
    <path class="st1" d="M21.7,13.8s0,0,0,0,0,0,0,0,0,0,0,0,0,0,0,0Z"/>
    <path class="st1" d="M19.3,13.1s0,0,0,0,0,0,0,0,0,0,0,0,0,0,0,0Z"/>
    <path class="st1" d="M20.1,13.9s0,0,0,0,0,0,0,0,0,0,0,0,0,0,0,0Z"/>
    <path class="st1" d="M20.9,14.6s0,0,0,0,0,0,0,0,0,0,0,0,0,0,0,0Z"/>
    <path class="st1" d="M14.3,18.1s0,0,0,0,0,0,0,0,0,0,0,0,0,0,0,0Z"/>
    <path class="st1" d="M15.1,18.9s0,0,0,0,0,0,0,0,0,0,0,0,0,0,0,0Z"/>
    <path class="st1" d="M15.8,19.7s0,0,0,0,0,0,0,0,0,0,0,0,0,0,0,0Z"/>
    <path class="st1" d="M13.5,18.9s0,0,0,0,0,0,0,0,0,0,0,0,0,0,0,0Z"/>
    <path class="st1" d="M14.3,19.7s0,0,0,0,0,0,0,0,0,0,0,0,0,0,0,0Z"/>
    <path class="st1" d="M15,20.4s0,0,0,0,0,0,0,0,0,0,0,0,0,0,0,0Z"/>
    <path class="st1" d="M12.9,19.6s0,0,0,0,0,0,0,0,0,0,0,0,0,0,0,0Z"/>
    <path class="st1" d="M13.6,20.4s0,0,0,0,0,0,0,0,0,0,0,0,0,0,0,0Z"/>
    <path class="st1" d="M14.4,21.1s0,0,0,0,0,0,0,0,0,0,0,0,0,0,0,0Z"/>
    <path class="st1" d="M12,20.4s0,0,0,0,0,0,0,0,0,0,0,0,0,0,0,0Z"/>
    <path class="st1" d="M12.8,21.2s0,0,0,0,0,0,0,0,0,0,0,0,0,0,0,0Z"/>
    <path class="st1" d="M13.5,21.9s0,0,0,0,0,0,0,0,0,0,0,0,0,0,0,0Z"/>
  </g>
</svg>