<?xml version="1.0" encoding="UTF-8"?>
<svg id="Layer_1" xmlns="http://www.w3.org/2000/svg" version="1.1" viewBox="0 0 1080 1080">
  <!-- Generator: Adobe Illustrator 29.1.0, SVG Export Plug-In . SVG Version: 2.1.0 Build 142)  -->
  <defs>
    <style>
      .st0 {
        fill: #626366;
      }

      .st0, .st1 {
        fill-rule: evenodd;
      }

      .st2, .st1 {
        fill: #4c6bb2;
      }
    </style>
  </defs>
  <path class="st1" d="M170.68,307.32h251.57s87.2,37.7,87.2,118.71-33.94,131.73-101.89,137.25c46.15,80.57,126.71,228.34,126.71,228.34h-93.66l-128.8-223.73h-40.14v-91.16h135.89c4.3-.64,27.72-8.12,28.29-43.81.57-35.69-25.7-37.65-28.29-39.05h-236.88v-86.55h0Z"/>
  <path class="st0" d="M575.38,307.32h251.57s87.2,37.7,87.2,118.71-33.94,131.73-101.89,137.25l-132.5-.49-2.81,231.03h-80.39l1.28-225.93c0-47.74,29.25-91.16,89.83-91.16h124.59c4.29-.64,27.72-8.12,28.29-43.81.57-35.69-25.69-37.65-28.29-39.05h-236.88v-86.55h0Z"/>
  <path class="st2" d="M984.71,504.08c-14.45,68.14-29.8,134.55-56.56,197.88-70.96,167.95-192,283.89-359.74,344.6-8.81,3.19-17.18,4.79-25.56,4.79s-17.11-1.65-26.2-4.96c-191.86-69.87-321.42-210.19-385.1-417.08-39.27-127.6-51.9-264.16-38.64-417.48,1.53-17.8,9.67-28.04,26.4-33.18,131.96-40.56,265.95-82.42,395.52-122.89l10.41-3.25c11.77-3.67,23.38-3.6,35.53.19l19.54,6.1c125.1,39.09,254.45,79.51,381.92,118.46,20.09,6.14,28.55,16.53,30.18,37.05,7.47,93.79,5.83,178.53-5,259.05-.5,3.72-2.59,26.57-2.7,30.72-.03,1.11,1.93-16.72,1.89-15.61M966.86,497.03c10.65-79.17,14.05-188.78,6.69-281.21-1.02-12.76-4.16-16.58-16.86-20.46-127.52-38.96-256.91-79.39-382.03-118.49l-19.53-6.11c-4.4-1.37-8.5-2.06-12.56-2.06s-7.7.63-11.69,1.87l-10.41,3.25c-129.59,40.49-263.6,82.35-395.61,122.92-9.41,2.89-12.22,6.49-13.11,16.72-13.05,150.85-.66,285.05,37.87,410.28,61.84,200.93,187.5,337.14,373.49,404.87,13.92,5.07,25.18,5.11,38.85.17,162.59-58.85,279.93-171.28,348.75-334.18,26.52-62.76,41.69-129.27,56.14-197.57"/>
</svg>