<?xml version="1.0" encoding="UTF-8"?>
<svg id="_Ñëîé_1" data-name="Ñëîé_1" xmlns="http://www.w3.org/2000/svg" version="1.1" viewBox="0 0 32 32">
  <!-- Generator: Adobe Illustrator 29.1.0, SVG Export Plug-In . SVG Version: 2.1.0 Build 142)  -->
  <defs>
    <style>
      .st0, .st1 {
        fill: #fff;
      }

      .st1 {
        fill-rule: evenodd;
      }
    </style>
  </defs>
  <path class="st0" d="M20.2,22.3c-1.6,0-3.1-.3-4.3-.8-1.3-.6-2.1-1.4-2.1-2.3h1.3c0,.4.5.8,1.3,1.1,1,.4,2.4.7,3.8.7s2.8-.2,3.8-.7c.8-.3,1.3-.8,1.3-1.1h1.3c0,.9-.7,1.7-2.1,2.3-1.2.5-2.7.8-4.3.8Z"/>
  <path class="st0" d="M20.2,19.9c-1.6,0-3.1-.3-4.3-.8-1.3-.6-2.1-1.4-2.1-2.3s.7-1.7,2.1-2.3c1.2-.5,2.7-.8,4.3-.8s3.1.3,4.3.8c1.3.6,2.1,1.4,2.1,2.3s-.7,1.7-2.1,2.3c-1.2.5-2.7.8-4.3.8ZM20.2,15c-1.4,0-2.8.2-3.8.7-.8.3-1.3.8-1.3,1.1s.5.8,1.3,1.1c1,.4,2.4.7,3.8.7s2.8-.2,3.8-.7c.8-.3,1.3-.8,1.3-1.1s-.5-.8-1.3-1.1c-1-.4-2.4-.7-3.8-.7Z"/>
  <rect class="st0" x="16.7" y="16.1" width="6.7" height="1.3" transform="translate(-6.1 16.9) rotate(-40.3)"/>
  <rect class="st0" x="13.8" y="16.8" width="1.3" height="2.4"/>
  <rect class="st0" x="25.3" y="16.8" width="1.3" height="2.4"/>
  <path class="st0" d="M13.7,20c-1,0-2-.4-2.7-1.1-1.5-1.5-1.4-3.9,0-5.4l6.9-6.8c1.5-1.5,3.9-1.4,5.4,0,.7.7,1.1,1.7,1.1,2.7,0,1-.4,2-1.1,2.7l-2.7,2.7c-.3.2-.7.2-.9,0-.2-.3-.2-.7,0-.9l2.7-2.7c.5-.5.8-1.1.8-1.8,0-.7-.2-1.3-.7-1.8-1-1-2.6-1-3.6,0l-6.9,6.8c-1,1-1,2.6,0,3.6.6.6,1.5.9,2.3.7.3,0,.7.1.8.5,0,.3-.1.7-.5.8-.3,0-.5,0-.8,0Z"/>
  <rect class="st0" x="16.2" y="9.7" width="1.3" height="5.4" transform="translate(-3.9 15.3) rotate(-44.4)"/>
  <path class="st0" d="M12.9,17.9c0,0-.2,0-.3-.1-.5-.5-.7-1.1-.7-1.7,0-.7.3-1.3.7-1.7.1-.1.4-.1.5,0,.1.1.1.4,0,.5-.3.3-.5.8-.5,1.2,0,.5.2.9.5,1.2.1.1.1.4,0,.5,0,0-.2.1-.2.1Z"/>
  <path class="st0" d="M7,25.3c-.3-.3-.6-.7-.9-1.1-.7-1-1.4-2-1.8-3.1h-.1c-.3-.4-.7-.4-1-.1,0,0-.2.2-.2.3,0,.1,0,.2.2.4,0,.2.1.3.2.5l2.4,2.4-.6.6c.3.4.6.7.9,1.1l.6-.6,2.6,2.6c.1.1.3.2.5.2s.4,0,.5-.2c0,0,.1-.2.2-.3-1.3-.7-2.5-1.6-3.5-2.6ZM30.5,10.1c-.7-1.8-1.8-3.4-3.2-4.7-1.4-1.4-3-2.4-4.7-3.2-1.8-.8-3.8-1.2-5.8-1.2s-4,.4-5.8,1.2c-1.8.7-3.4,1.8-4.7,3.2-1.4,1.4-2.4,3-3.2,4.7-.8,1.8-1.2,3.8-1.2,5.8s.1,2.3.4,3.4c.4-.3.7-.6,1.1-.8-.2-.8-.2-1.7-.2-2.6,0-7.5,6.1-13.6,13.6-13.6s13.6,6.1,13.6,13.6-6.1,13.6-13.6,13.6-3.1-.3-4.5-.8c-.2.3-.4.5-.7.8,0,0-.2.2-.3.2,1.7.7,3.5,1,5.4,1s4-.4,5.8-1.2c1.8-.7,3.4-1.8,4.7-3.2,1.4-1.4,2.4-3,3.2-4.7.8-1.8,1.2-3.8,1.2-5.8s-.4-4-1.2-5.8ZM11.5,28.4c0,0-.2,0-.3-.1-.3.4-.6.7-1,.9,0,0,.2,0,.3.1,0,0,.2,0,.3.1.1-.1.3-.3.4-.4.2-.2.4-.4.5-.6,0,0-.2,0-.3-.1ZM3.6,19.3c0,0,0-.2,0-.3-.4.2-.8.5-1.1.8,0,0,0,.2,0,.3,0,0,0,.2,0,.3.3-.3.7-.6,1.1-.8,0,0,0-.2,0-.3Z"/>
  <g>
    <path class="st1" d="M10.3,27.2l-2.6-2.6,2.6-2.6c.3-.3.3-.7,0-1-.3-.3-.7-.3-1,0l-2.6,2.6-2.6-2.6c-.3-.3-.7-.3-1,0,0,0-.2.2-.2.3,0,.2,0,.5.2.7l.2.2,2.4,2.4-2.6,2.6c-.3.3-.3.7,0,1,.1.1.3.2.5.2s.4,0,.5-.2l2-2,.6-.6,2.6,2.6c.1.1.3.2.5.2s.4,0,.5-.2c0,0,.1-.2.2-.3,0-.2,0-.5-.2-.7ZM10.3,27.2l-2.6-2.6,2.6-2.6c.3-.3.3-.7,0-1-.3-.3-.7-.3-1,0l-2.6,2.6-2.6-2.6c-.3-.3-.7-.3-1,0,0,0-.2.2-.2.3,0,.2,0,.5.2.7l.2.2,2.4,2.4-2.6,2.6c-.3.3-.3.7,0,1,.1.1.3.2.5.2s.4,0,.5-.2l2-2,.6-.6,2.6,2.6c.1.1.3.2.5.2s.4,0,.5-.2c0,0,.1-.2.2-.3,0-.2,0-.5-.2-.7ZM6.7,18.5c-1.1,0-2.2.3-3.1.8-.4.2-.8.5-1.1.8-1.2,1.1-1.9,2.7-1.9,4.5,0,3.4,2.7,6.1,6.1,6.1s2.8-.5,3.8-1.3c.4-.3.7-.6,1-1,.8-1,1.3-2.4,1.3-3.8,0-3.4-2.7-6.1-6.1-6.1ZM11.3,28.3c-.3.4-.6.7-1,.9-1,.8-2.2,1.2-3.6,1.2-3.2,0-5.9-2.6-5.9-5.9s.7-3.1,1.8-4.2c.3-.3.7-.6,1.1-.8.9-.5,1.9-.8,3-.8,3.2,0,5.9,2.6,5.9,5.9s-.5,2.7-1.3,3.7ZM7.7,24.6l2.6-2.6c.3-.3.3-.7,0-1-.3-.3-.7-.3-1,0l-2.6,2.6-2.6-2.6c-.3-.3-.7-.3-1,0,0,0-.2.2-.2.3,0,.2,0,.5.2.7l.2.2,2.4,2.4-2.6,2.6c-.3.3-.3.7,0,1,.1.1.3.2.5.2s.4,0,.5-.2l2-2,.6-.6,2.6,2.6c.1.1.3.2.5.2s.4,0,.5-.2c0,0,.1-.2.2-.3,0-.2,0-.5-.2-.7l-2.6-2.6Z"/>
    <path class="st0" d="M11.3,20.1c-1.2-1.2-2.8-1.9-4.5-1.9s-2.2.3-3.2.8c-.4.2-.8.5-1.1.8,0,0-.2.2-.2.2-1.2,1.2-1.9,2.8-1.9,4.5s.7,3.3,1.9,4.5c1.2,1.2,2.8,1.9,4.5,1.9s2.9-.5,4.1-1.5c.1-.1.3-.3.4-.4.2-.2.4-.4.5-.6.9-1.1,1.4-2.5,1.4-3.9s-.7-3.3-1.9-4.5ZM6.7,30.5c-3.2,0-5.9-2.6-5.9-5.9s.7-3.1,1.8-4.2c.3-.3.7-.6,1.1-.8.9-.5,1.9-.8,3-.8,3.2,0,5.9,2.6,5.9,5.9s-.5,2.7-1.3,3.7c-.3.4-.6.7-1,.9-1,.8-2.2,1.2-3.6,1.2Z"/>
  </g>
  <path class="st0" d="M10.5,27.9c0,0,0,.2-.2.3-.1.1-.3.2-.5.2s-.4,0-.5-.2l-2.6-2.6-1-1-2.4-2.4-.2-.2c-.2-.2-.2-.4-.2-.7,0-.1,0-.2.2-.3.3-.3.7-.3,1,0l6.2,6.2c.2.2.3.5.2.7Z"/>
  <path class="st0" d="M10.3,22l-2.6,2.6-.7.7-.3.3-.6.6-2,2c-.1.1-.3.2-.5.2s-.4,0-.5-.2c-.3-.3-.3-.7,0-1l3-3,.7-.7,2.6-2.6c.3-.3.7-.3,1,0,.3.3.3.7,0,1Z"/>
</svg>