<?xml version="1.0" encoding="UTF-8"?>
<svg id="Layer_3" xmlns="http://www.w3.org/2000/svg" version="1.1" viewBox="0 0 150 150">
  <!-- Generator: Adobe Illustrator 29.1.0, SVG Export Plug-In . SVG Version: 2.1.0 Build 142)  -->
  <defs>
    <style>
      .st0 {
        fill: #fff;
      }
    </style>
  </defs>
  <path class="st0" d="M60.2,127.6c-.4,0-.8,0-1.1-.2-1.4-.6-2-2.2-1.5-3.6,0,0,0,0,0,0l11.9-28.3c.6-1.4,2.2-2,3.6-1.4,1.4.6,2,2.2,1.4,3.6l-12,28.2c-.4,1-1.4,1.7-2.5,1.7Z"/>
  <path class="st0" d="M92.7,142.3c-2.7,0-5.4-.5-7.9-1.6l-52-22c-10.3-4.4-15.1-16.3-10.8-26.6,3.2-7.5,10.5-12.4,18.7-12.4,2.7,0,5.4.5,7.9,1.6l52,22c10.3,4.4,15.1,16.3,10.8,26.6-3.2,7.5-10.5,12.4-18.7,12.4ZM40.7,85.2c-8.2,0-14.8,6.6-14.8,14.8,0,6,3.6,11.3,9,13.6l52,22c7.5,3.2,16.2-.3,19.4-7.8,0,0,0,0,0,0h0c3.2-7.5-.3-16.2-7.8-19.4,0,0,0,0,0,0l-52-22c-1.8-.8-3.8-1.2-5.8-1.2Z"/>
  <path class="st0" d="M23.6,106.5c-.4,0-.9-.1-1.3-.3-15.3-7.9-21.3-26.7-13.4-42.1,7.9-15.3,26.7-21.3,42.1-13.4,10.4,5.4,16.9,16.1,16.9,27.8,0,4.4-.9,8.8-2.8,12.9-.6,1.3-2.2,2-3.6,1.4l-15.1-6.4c-7.5-3.2-16.2.3-19.4,7.8-1.2,2.8-1.5,6-.8,9,.2,1-.2,2.1-1,2.8-.5.4-1.1.6-1.7.6ZM36.6,52.7c-14.2,0-25.8,11.5-25.8,25.7,0,7.8,3.5,15.2,9.6,20,.2-2.2.7-4.4,1.6-6.4,4.3-10.3,16.2-15.1,26.5-10.8,0,0,0,0,0,0l12.5,5.3c4.5-13.5-2.9-28.1-16.4-32.6-2.6-.9-5.3-1.3-8.1-1.3Z"/>
  <path class="st0" d="M62.9,80.1h-.2l-52.6-4.4c-1.5-.1-2.6-1.5-2.5-3s1.5-2.6,3-2.5h0l52.6,4.4c1.5,0,2.7,1.3,2.6,2.9,0,1.5-1.3,2.7-2.9,2.6Z"/>
  <path class="st0" d="M116.6,126.7c-1.5,0-2.7-1.2-2.7-2.7s.4-1.7,1.1-2.2c26.7-19.9,32.1-57.7,12.2-84.4-11.4-15.2-29.3-24.2-48.3-24.2-21.7,0-41.7,11.7-52.4,30.5-.7,1.3-2.4,1.8-3.7,1-1.3-.7-1.8-2.4-1-3.7C39.6,9.5,79.7-1.6,111.3,16.3c20.6,11.7,33.3,33.5,33.3,57.2,0,20.7-9.7,40.3-26.4,52.7-.5.4-1.1.5-1.6.5Z"/>
  <path class="st0" d="M119.9,93.3c-.5,0-.9-.1-1.3-.3l-39.4-21.9c-.9-.5-1.4-1.4-1.4-2.4V23.7c0-1.5,1.2-2.7,2.7-2.7s2.7,1.2,2.7,2.7v43.3l38,21.1c1.3.7,1.9,2.3,1.2,3.7-.5.9-1.5,1.5-2.5,1.5Z"/>
</svg>